<svg width="20" height="20" viewBox="0 0 20 20" fill="none" xmlns="http://www.w3.org/2000/svg">
<path d="M16.25 8.125V3.125C16.25 2.95924 16.1841 2.80027 16.0669 2.68306C15.9497 2.56585 15.7907 2.5 15.625 2.5H4.37498C4.24791 2.49971 4.12376 2.53816 4.0191 2.61022C3.91443 2.68228 3.83422 2.78454 3.78916 2.90335C3.74409 3.02217 3.73632 3.1519 3.76686 3.27525C3.79741 3.39859 3.86483 3.5097 3.96014 3.59375L8.35936 7.5H4.37498C4.20922 7.5 4.05025 7.56585 3.93304 7.68306C3.81583 7.80027 3.74998 7.95924 3.74998 8.125V13.125C3.74992 13.2071 3.76603 13.2884 3.7974 13.3643C3.82876 13.4402 3.87477 13.5091 3.93279 13.5672L9.55779 19.1922C9.6452 19.2797 9.75661 19.3393 9.87792 19.3635C9.99922 19.3876 10.125 19.3752 10.2392 19.3279C10.3535 19.2805 10.4511 19.2004 10.5198 19.0975C10.5885 18.9946 10.6251 18.8737 10.625 18.75V13.75H15.625C15.7521 13.7503 15.8762 13.7118 15.9809 13.6398C16.0855 13.5677 16.1657 13.4655 16.2108 13.3466C16.2559 13.2278 16.2636 13.0981 16.2331 12.9748C16.2026 12.8514 16.1351 12.7403 16.0398 12.6563L11.6406 8.75H15.625C15.7907 8.75 15.9497 8.68415 16.0669 8.56694C16.1841 8.44973 16.25 8.29076 16.25 8.125ZM13.9844 12.5H9.99998C9.83422 12.5 9.67525 12.5658 9.55804 12.6831C9.44083 12.8003 9.37498 12.9592 9.37498 13.125V17.2414L4.99998 12.8664V8.75H9.76561L13.9844 12.5ZM15 7.5H10.2344L6.01561 3.75H15V7.5Z" fill="white"/>
</svg>
